<?xml version="1.0" encoding="utf-8"?>
<svg viewBox="0 0 500 500" width="500" height="500" xmlns="http://www.w3.org/2000/svg">
  <g fill="#f2cd00" fill-rule="none" stroke-miterlimit="10" data-paper-data="{&quot;isGlobalGroup&quot;:true,&quot;bounds&quot;:{&quot;x&quot;:64.99999999999999,&quot;y&quot;:130.89452571477966,&quot;width&quot;:420,&quot;height&quot;:208.21094857044068}}" font-family="none" font-size="none" font-weight="none" text-anchor="none" transform="matrix(1.9802439212799072, 0, 0, 2.318794012069702, -294.2215881347656, -302.4733581542969)" style="">
    <g data-paper-data="{&quot;isIcon&quot;:&quot;true&quot;,&quot;iconType&quot;:&quot;icon&quot;,&quot;rawIconId&quot;:&quot;1371441&quot;,&quot;selectedEffects&quot;:{&quot;container&quot;:&quot;enclosed_circle_outline3&quot;,&quot;transformation&quot;:&quot;&quot;,&quot;pattern&quot;:&quot;&quot;},&quot;isDetailed&quot;:false,&quot;fillRule&quot;:&quot;evenodd&quot;,&quot;blockLetter&quot;:&quot;O&quot;,&quot;blockLetterId&quot;:0,&quot;relativeBoundsIconToContainer&quot;:{&quot;top&quot;:-3.905886874709291e-7,&quot;left&quot;:-3.905886874709291e-7},&quot;widthRatioIconToContainer&quot;:0.9178834155262128,&quot;heightRatioIconToContainer&quot;:0.9178834155262128,&quot;bounds&quot;:{&quot;x&quot;:183.6817464769034,&quot;y&quot;:130.89452571477966,&quot;width&quot;:182.6371857654646,&quot;height&quot;:142.39535571503342},&quot;iconStyle&quot;:&quot;standalone&quot;,&quot;suitableAsStandaloneIcon&quot;:false}">
      <path fill-rule="evenodd" d="M299.146 134.11c-7.808-2.144-15.857-3.215-24.146-3.215-8.281 0-16.323 1.07-24.126 3.21l.864.141.164.03 1.644.327.164.035 1.633.381.162.041 1.619.436.161.046 1.604.49.16.05 1.585.543.158.057 4.712 1.757a86.076 86.076 0 019.496-.52c3.261 0 6.482.18 9.662.539l3.764-1.438 1.575-.574.155-.054 1.593-.523.159-.05 1.609-.47.16-.043 1.625-.417.162-.039 1.638-.362.164-.033 1.648-.307.166-.028zm9.033 105.565c27.968 0 50.642-22.673 50.642-50.64 0-27.968-22.674-50.642-50.642-50.642-7.532 0-14.644 1.685-21.07 4.631 11.916 11.727 19.323 28.015 19.323 46.011 0 17.994-7.407 34.282-19.324 46.009 6.425 2.946 13.54 4.63 21.07 4.63zm-116.999-50.64c0 7.531 1.685 14.643 4.631 21.064 11.727-11.91 28.015-19.318 46.011-19.318 17.994 0 34.283 7.407 46.009 19.318 2.946-6.419 4.631-13.533 4.631-21.064 0-27.968-22.673-50.642-50.64-50.642-27.968 0-50.642 22.674-50.642 50.642zm-4.283 9.032c-2.144 7.809-3.215 15.857-3.215 24.146 0 8.282 1.07 16.324 3.21 24.126l.141-.864.03-.164.327-1.644.035-.164.381-1.632.041-.163.436-1.619.046-.161.49-1.603.051-.16.542-1.586.057-.158 1.757-4.714a86.077 86.077 0 01-.52-9.494c0-3.262.18-6.484.54-9.665l-1.437-3.76-.575-1.574-.054-.156-.523-1.593-.05-.159-.47-1.609-.044-.161-.416-1.624-.04-.163-.361-1.637-.034-.165-.307-1.648-.028-.166zm176.206 48.292c2.144-7.809 3.216-15.857 3.216-24.146 0-8.281-1.07-16.323-3.21-24.125l-.141.863-.03.164-.327 1.644-.036.164-.38 1.632-.042.163-.435 1.619-.047.161-.489 1.603-.051.16-.543 1.586-.056.158-.596 1.567-.062.156-.647 1.546-.067.154-.426.93a86.03 86.03 0 01.56 9.855c0 3.262-.179 6.483-.539 9.663l1.38 3.61.058.153.575 1.575.054.155.522 1.593.05.158.47 1.61.043.16.417 1.625.039.162.363 1.637.033.165.307 1.648.028.166zm-102.31 26.93a50.526 50.526 0 01-3.254-17.898c0-7.531 1.684-14.645 4.63-21.07 11.727 11.917 28.015 19.324 46.01 19.324 17.995 0 34.284-7.407 46.01-19.324 2.947 6.427 4.632 13.539 4.632 21.07a50.536 50.536 0 01-3.255 17.899zm-66.359 0a50.526 50.526 0 01-3.254-17.898c0-27.966 22.674-50.64 50.642-50.64 7.532 0 14.646 1.685 21.064 4.631-11.91 11.727-19.318 28.015-19.318 46.01 0 6.208.881 12.213 2.526 17.898z" data-paper-data="{&quot;isPathIcon&quot;:true}"/>
    </g>
    <path fill-rule="nonzero" d="M155.381 317.995c1.694.181 3.266.302 5.564.302 7.56 0 10.825-4.959 10.825-10.855 0-5.927-3.266-10.795-10.493-10.795-2.328 0-4.021.121-5.896.302zm5.806-18.868c5.261 0 7.65 3.96 7.65 8.315 0 4.898-2.359 8.345-7.801 8.345-.998 0-1.936-.03-2.782-.15v-16.36c.816-.09 1.754-.15 2.933-.15z" data-paper-data="{&quot;glyphName&quot;:&quot;D&quot;,&quot;glyphIndex&quot;:0,&quot;firstGlyphOfWord&quot;:true,&quot;word&quot;:1}"/>
    <path fill-rule="nonzero" d="M178.876 318.055V296.89h-2.873v21.166z" data-paper-data="{&quot;glyphName&quot;:&quot;I&quot;,&quot;glyphIndex&quot;:1,&quot;word&quot;:1}"/>
    <path fill-rule="nonzero" d="M189.67 318.055h3.236l7.74-20.41-2.6-.998-6.682 18.263-6.653-18.354-2.812 1.089z" data-paper-data="{&quot;glyphName&quot;:&quot;V&quot;,&quot;glyphIndex&quot;:2,&quot;word&quot;:1}"/>
    <path fill-rule="nonzero" d="M203.67 318.055h12.7v-2.48h-9.827v-7.347h8.466v-2.419h-8.466v-6.44h9.827v-2.48h-12.7z" data-paper-data="{&quot;glyphName&quot;:&quot;E&quot;,&quot;glyphIndex&quot;:3,&quot;word&quot;:1}"/>
    <path fill-rule="nonzero" d="M235.48 317.148l-2.298-4.959c-1.24-2.66-2.238-3.628-3.87-4.354 3.295-.877 5.11-2.63 5.11-5.564 0-3.296-2.631-5.624-7.771-5.624-2.238 0-4.052.09-6.2.302v21.106h2.874v-9.343h.453c3.145 0 5.05 1.088 6.38 3.96l2.63 5.746zm-8.83-18.082c3.145 0 4.9 1.482 4.9 3.477 0 2.42-1.997 3.75-4.9 3.75h-3.326v-7.106c.877-.06 1.966-.12 3.327-.12z" data-paper-data="{&quot;glyphName&quot;:&quot;R&quot;,&quot;glyphIndex&quot;:4,&quot;word&quot;:1}"/>
    <path fill-rule="nonzero" d="M237.294 316.271c1.633 1.3 4.143 2.147 7.076 2.147 4.475 0 7.68-2.268 7.68-6.199 0-2.872-1.542-4.777-6.26-6.53-3.93-1.452-4.595-2.299-4.595-3.871 0-1.663 1.633-2.812 4.293-2.812 1.996 0 3.931.635 5.292 1.42l1.058-2.448c-1.905-.938-3.81-1.452-6.29-1.452-4.625 0-7.196 2.45-7.196 5.443 0 3.054 1.512 4.626 5.897 6.29 4.052 1.541 4.838 2.57 4.838 4.293 0 2.056-1.815 3.356-4.717 3.356-2.42 0-4.173-.846-5.624-2.056z" data-paper-data="{&quot;glyphName&quot;:&quot;S&quot;,&quot;glyphIndex&quot;:5,&quot;word&quot;:1}"/>
    <path fill-rule="nonzero" d="M256.283 318.055h12.7v-2.48h-9.827v-7.347h8.466v-2.419h-8.466v-6.44h9.827v-2.48h-12.7z" data-paper-data="{&quot;glyphName&quot;:&quot;E&quot;,&quot;glyphIndex&quot;:6,&quot;lastGlyphOfWord&quot;:true,&quot;word&quot;:1}"/>
    <path fill-rule="nonzero" d="M299.039 318.055h2.872V296.89H297.8l-5.775 13.395-5.866-13.395h-4.022v21.166h2.721v-17.507l5.685 12.73h2.842l5.655-12.73z" data-paper-data="{&quot;glyphName&quot;:&quot;M&quot;,&quot;glyphIndex&quot;:7,&quot;firstGlyphOfWord&quot;:true,&quot;word&quot;:2}"/>
    <path fill-rule="nonzero" d="M307.384 318.297l2.359-5.987h9.797l2.358 6.048 2.63-1.059-8.163-20.41h-3.145l-8.285 20.41zm7.257-18.566l3.961 10.16h-7.952z" data-paper-data="{&quot;glyphName&quot;:&quot;A&quot;,&quot;glyphIndex&quot;:8,&quot;word&quot;:2}"/>
    <path fill-rule="nonzero" d="M342.58 317.148l-2.297-4.959c-1.24-2.66-2.238-3.628-3.87-4.354 3.295-.877 5.11-2.63 5.11-5.564 0-3.296-2.631-5.624-7.772-5.624-2.237 0-4.052.09-6.198.302v21.106h2.872v-9.343h.454c3.144 0 5.05 1.088 6.38 3.96l2.63 5.746zm-8.829-18.082c3.145 0 4.899 1.482 4.899 3.477 0 2.42-1.996 3.75-4.899 3.75h-3.326v-7.106c.877-.06 1.966-.12 3.326-.12z" data-paper-data="{&quot;glyphName&quot;:&quot;R&quot;,&quot;glyphIndex&quot;:9,&quot;word&quot;:2}"/>
    <path fill-rule="nonzero" d="M351.773 307.17l8.254-8.588-1.935-1.784-9.01 9.737v-9.646h-2.873v21.166h2.873v-9.736l10.28 10.099 1.996-2.056z" data-paper-data="{&quot;glyphName&quot;:&quot;K&quot;,&quot;glyphIndex&quot;:10,&quot;word&quot;:2}"/>
    <path fill-rule="nonzero" d="M364.382 318.055h12.7v-2.48h-9.828v-7.347h8.467v-2.419h-8.467v-6.44h9.827v-2.48h-12.7z" data-paper-data="{&quot;glyphName&quot;:&quot;E&quot;,&quot;glyphIndex&quot;:11,&quot;word&quot;:2}"/>
    <path fill-rule="nonzero" d="M378.744 299.429h6.501v18.626h2.873V299.43h6.501v-2.54h-15.875z" data-paper-data="{&quot;glyphName&quot;:&quot;T&quot;,&quot;glyphIndex&quot;:12,&quot;lastGlyphOfWord&quot;:true,&quot;word&quot;:2}"/>
    <path fill-rule="evenodd" d="M148.563 332.96h-82.47a1.12 1.12 0 01-.418-.082 1.13 1.13 0 01-.355-.237 1.074 1.074 0 01-.3-.56 1.12 1.12 0 01.013-.477l6.078-24.313-6.078-24.313a1.085 1.085 0 01.123-.828c.074-.124.17-.229.286-.315a1.073 1.073 0 01.651-.215h82.47v-5.052a1.097 1.097 0 01.486-.908 1.104 1.104 0 01.607-.184h250.688a1.12 1.12 0 01.418.083 1.13 1.13 0 01.355.236 1.084 1.084 0 01.32.773v5.052h82.47a1.109 1.109 0 01.418.084 1.09 1.09 0 01.642 1.274l-6.078 24.313 6.078 24.313a1.085 1.085 0 01-.123.827 1.08 1.08 0 01-.287.315 1.074 1.074 0 01-.65.215h-82.47v5.052a1.12 1.12 0 01-.084.418 1.13 1.13 0 01-.236.355 1.084 1.084 0 01-.773.32H149.656a1.114 1.114 0 01-.418-.084 1.105 1.105 0 01-.49-.402 1.115 1.115 0 01-.185-.607zm2.186-1.092a1.097 1.097 0 00-.486-.908 1.104 1.104 0 00-.607-.184H67.493l5.805-23.22a1.079 1.079 0 000-.53l-5.805-23.22h82.163a1.114 1.114 0 00.418-.084 1.105 1.105 0 00.49-.402 1.115 1.115 0 00.185-.607v-5.052h248.503v5.052a1.12 1.12 0 00.083.418 1.13 1.13 0 00.236.355 1.13 1.13 0 00.773.32h82.163l-5.804 23.22a1.08 1.08 0 000 .53l5.804 23.22h-82.163a1.12 1.12 0 00-.418.083 1.13 1.13 0 00-.355.237 1.084 1.084 0 00-.32.772v5.053H150.75z"/>
    <path fill-rule="evenodd" d="M148.563 276.568v61.445a1.097 1.097 0 00.486.909 1.104 1.104 0 00.607.183h250.688a1.12 1.12 0 00.418-.083 1.13 1.13 0 00.355-.236 1.084 1.084 0 00.32-.773v-61.445a1.12 1.12 0 00-.084-.418 1.13 1.13 0 00-.236-.355 1.084 1.084 0 00-.773-.32H149.656a1.114 1.114 0 00-.418.084 1.105 1.105 0 00-.49.402 1.115 1.115 0 00-.185.607zm2.186 60.353v-59.26h248.503v59.26z"/>
  </g>
</svg>